<?xml version="1.0" encoding="UTF-8" standalone="no"?>
<!-- Created with Inkscape (http://www.inkscape.org/) -->

<svg
   width="256"
   height="128"
   viewBox="0 0 67.733333 33.866667"
   version="1.1"
   id="svg1"
   inkscape:version="1.4.2 (ebf0e940d0, 2025-05-08)"
   sodipodi:docname="bitplanner.svg"
   inkscape:export-filename="icon-android-bg.png"
   inkscape:export-xdpi="324"
   inkscape:export-ydpi="324"
   xmlns:inkscape="http://www.inkscape.org/namespaces/inkscape"
   xmlns:sodipodi="http://sodipodi.sourceforge.net/DTD/sodipodi-0.dtd"
   xmlns:xlink="http://www.w3.org/1999/xlink"
   xmlns="http://www.w3.org/2000/svg"
   xmlns:svg="http://www.w3.org/2000/svg">
  <sodipodi:namedview
     id="namedview1"
     pagecolor="#ffffff"
     bordercolor="#000000"
     borderopacity="0.25"
     inkscape:showpageshadow="2"
     inkscape:pageopacity="0.0"
     inkscape:pagecheckerboard="0"
     inkscape:deskcolor="#d1d1d1"
     inkscape:document-units="px"
     inkscape:zoom="2.4765712"
     inkscape:cx="102.15737"
     inkscape:cy="120.32765"
     inkscape:window-width="1745"
     inkscape:window-height="913"
     inkscape:window-x="0"
     inkscape:window-y="0"
     inkscape:window-maximized="1"
     inkscape:current-layer="layer1"
     inkscape:export-bgcolor="#ffffff00" />
  <defs
     id="defs1">
    <linearGradient
       id="linearGradient1"
       inkscape:collect="always">
      <stop
         style="stop-color:#4d80df;stop-opacity:1;"
         offset="0"
         id="stop1" />
      <stop
         style="stop-color:#23274a;stop-opacity:1;"
         offset="1"
         id="stop2" />
    </linearGradient>
    <radialGradient
       inkscape:collect="always"
       xlink:href="#linearGradient1"
       id="radialGradient2"
       cx="30.837898"
       cy="37.399055"
       fx="30.837898"
       fy="37.399055"
       r="64"
       gradientUnits="userSpaceOnUse"
       gradientTransform="matrix(0.26097055,-0.00346289,0.00358979,0.27053382,8.9810411,7.3032436)" />
    <radialGradient
       inkscape:collect="always"
       xlink:href="#linearGradient1"
       id="radialGradient2-7"
       cx="30.837898"
       cy="37.399055"
       fx="30.837898"
       fy="37.399055"
       r="64"
       gradientUnits="userSpaceOnUse"
       gradientTransform="matrix(0.26097053,-0.00346291,0.00358979,0.27053536,42.847588,7.3033439)" />
  </defs>
  <g
     inkscape:label="Слой 1"
     inkscape:groupmode="layer"
     id="layer1">
    <rect
       style="fill:url(#radialGradient2);stroke-width:0.264583"
       id="rect1"
       width="33.866665"
       height="33.866665"
       x="0"
       y="0"
       rx="4.7624998"
       inkscape:export-filename="icon256.png"
       inkscape:export-xdpi="192.00002"
       inkscape:export-ydpi="192.00002" />
    <path
       id="path9"
       style="fill:none;stroke:#ffcb1a;stroke-width:0.47625;stroke-linecap:butt;stroke-linejoin:round;stroke-dasharray:none;stroke-opacity:0.857775"
       d="M 16.933332,31.020678 4.7333324,23.977005 16.933332,2.8459859 l 12.2,7.0436727 z M 29.133331,23.977005 16.933332,31.020678 4.7333325,9.8896586 16.933332,2.8459859 Z M 16.933332,31.020678 4.7333324,23.977005 16.933332,2.8459859 l 12.2,7.0436727 z M 29.133331,23.977005 16.933332,31.020678 4.7333325,9.8896586 16.933332,2.8459859 l 12.2,7.0436727 z M 16.933332,31.020678 4.7333324,23.977005 16.933332,2.8459859 l 12.2,7.0436727 z M 29.133331,23.977005 16.933332,31.020678 4.7333324,23.977005 C 8.8591424,16.967382 12.894879,9.9060466 16.933332,2.8459859 l 12.2,7.0436727 z m 0,0 -12.199999,7.043673 -12.1999996,-7.043673 1e-7,-14.0873464 12.1999995,-7.0436727 12.2,7.0436727 z" />
    <path
       id="rect9"
       style="fill:#ffffff;fill-opacity:1;stroke:none;stroke-width:0.673406;stroke-linecap:butt;stroke-linejoin:round;stroke-dasharray:none;stroke-opacity:0.857775"
       d="m 13.228964,13.411257 v 2.607076 l 2.077393,-0.756027 0.729671,-1.851049 z m 4.686019,0 0.689364,1.894974 2.032951,0.801502 v -2.696476 z m -4.686019,4.347021 v 16.108578 h 7.408334 V 17.848712 l -2.076876,0.755509 -1.706873,4.328935 -1.591117,-4.37286 z" />
    <path
       sodipodi:type="star"
       style="fill:#ffffff;fill-opacity:1;stroke:none;stroke-width:0.649999;stroke-linecap:butt;stroke-linejoin:round;stroke-dasharray:none;stroke-opacity:0.857775"
       id="path10"
       inkscape:flatsided="false"
       sodipodi:sides="4"
       sodipodi:cx="26.903986"
       sodipodi:cy="31.085703"
       sodipodi:r1="2.218468"
       sodipodi:r2="5.7075124"
       sodipodi:arg1="0.79873051"
       sodipodi:arg2="1.5841287"
       inkscape:rounded="0"
       inkscape:randomized="0"
       d="m 28.451627,32.675171 -1.623733,4.117537 -1.513376,-4.159365 -4.117537,-1.623733 4.159364,-1.513375 1.623733,-4.117537 1.513376,4.159364 4.117537,1.623733 z"
       transform="matrix(0.84915981,0,0,0.84295473,-5.9124514,-9.2705074)" />
    <rect
       style="fill:#ffffff;fill-opacity:0.8;stroke:none;stroke-width:0.550536;stroke-linecap:butt;stroke-linejoin:round;stroke-dasharray:none;stroke-opacity:0.857775"
       id="rect11"
       width="6.0854168"
       height="12.122775"
       x="5.3703938"
       y="21.744081" />
    <rect
       style="fill:#ffffff;fill-opacity:0.8;stroke:none;stroke-width:0.544187;stroke-linecap:butt;stroke-linejoin:round;stroke-dasharray:none;stroke-opacity:0.857775"
       id="rect12"
       width="6.0854168"
       height="7.7651434"
       x="22.410854"
       y="26.101519" />
    <rect
       style="display:inline;fill:url(#radialGradient2-7);stroke-width:0.264583"
       id="rect1-2"
       width="33.866665"
       height="33.866665"
       x="33.866547"
       y="-2.2799446e-07"
       inkscape:export-filename="icon-android-bg.png"
       inkscape:export-xdpi="324"
       inkscape:export-ydpi="324"
       rx="4.7624998" />
    <path
       id="path9-9"
       style="display:inline;fill:none;stroke:#ffcb1a;stroke-width:0.344028;stroke-linecap:butt;stroke-linejoin:round;stroke-dasharray:none;stroke-opacity:0.857775"
       d="m 50.79988,27.109527 -8.812842,-5.0881 8.812842,-15.2642891 8.812843,5.0880981 z m 8.812843,-5.0881 -8.812843,5.0881 -8.812842,-15.264291 8.812842,-5.0880981 z m -8.812843,5.0881 -8.812842,-5.0881 8.812842,-15.2642891 8.812843,5.0880981 z m 8.812843,-5.0881 -8.812843,5.0881 -8.812842,-15.264291 8.812842,-5.0880981 8.812843,5.0880981 z m -8.812843,5.0881 -8.812842,-5.0881 8.812842,-15.2642891 8.812843,5.0880981 z m 8.812843,-5.0881 -8.812843,5.0881 -8.812842,-5.0881 C 44.967375,16.957929 47.882646,11.857073 50.79988,6.7571379 l 8.812843,5.0880981 z m 0,0 -8.812843,5.0881 -8.812842,-5.0881 V 11.845236 l 8.812842,-5.0880981 8.812843,5.0880981 z" />
    <path
       id="rect9-1"
       style="display:inline;fill:#ffffff;fill-opacity:1;stroke:none;stroke-width:0.56026;stroke-linecap:butt;stroke-linejoin:round;stroke-dasharray:none;stroke-opacity:0.857775"
       d="m 47.717957,14.003069 v 2.169015 l 1.728328,-0.628995 0.607065,-1.54002 z m 3.898627,0 0.57353,1.576563 1.691354,0.666826 v -2.243389 z m -3.898627,3.616596 v 16.247002 h 6.163511 V 17.694904 l -1.727898,0.628561 -1.420067,3.601547 -1.323762,-3.638093 z"
       sodipodi:nodetypes="cccccccccccccccccc" />
    <path
       sodipodi:type="star"
       style="display:inline;fill:#ffffff;fill-opacity:1;stroke:none;stroke-width:0.649999;stroke-linecap:butt;stroke-linejoin:round;stroke-dasharray:none;stroke-opacity:0.857775"
       id="path10-2"
       inkscape:flatsided="false"
       sodipodi:sides="4"
       sodipodi:cx="26.903986"
       sodipodi:cy="31.085703"
       sodipodi:r1="2.218468"
       sodipodi:r2="5.7075124"
       sodipodi:arg1="0.79873051"
       sodipodi:arg2="1.5841287"
       inkscape:rounded="0"
       inkscape:randomized="0"
       d="m 28.451627,32.675171 -1.623733,4.117537 -1.513376,-4.159365 -4.117537,-1.623733 4.159364,-1.513375 1.623733,-4.117537 1.513376,4.159364 4.117537,1.623733 z"
       transform="matrix(0.70647556,0,0,0.70131316,31.792872,-4.8674801)" />
    <rect
       style="display:inline;fill:#ffffff;fill-opacity:0.8;stroke:none;stroke-width:0.458034;stroke-linecap:butt;stroke-linejoin:round;stroke-dasharray:none;stroke-opacity:0.857775"
       id="rect11-7"
       width="5.0628839"
       height="12.930932"
       x="41.179859"
       y="20.935734" />
    <rect
       style="display:inline;fill:#ffffff;fill-opacity:0.8;stroke:none;stroke-width:0.452748;stroke-linecap:butt;stroke-linejoin:round;stroke-dasharray:none;stroke-opacity:0.857775"
       id="rect12-0"
       width="5.0628839"
       height="9.3056784"
       x="55.35701"
       y="24.560986" />
  </g>
</svg>
